<svg xmlns="http://www.w3.org/2000/svg" width="19.844" height="19.844" viewBox="0 0 19.844 19.844">
  <g id="instagram" transform="translate(-7.735 -7.736)">
    <path id="Path_12570" data-name="Path 12570" d="M84.518,90.29h-8.3a5.779,5.779,0,0,1-5.772-5.772v-8.3a5.779,5.779,0,0,1,5.772-5.772h8.3a5.779,5.779,0,0,1,5.772,5.772v8.3a5.779,5.779,0,0,1-5.772,5.772m-8.3-18.11a4.043,4.043,0,0,0-4.039,4.039v8.3a4.043,4.043,0,0,0,4.039,4.039h8.3a4.043,4.043,0,0,0,4.039-4.039v-8.3a4.043,4.043,0,0,0-4.039-4.039Z" transform="translate(-62.711 -62.71)" fill="#fff"/>
    <path id="Path_12571" data-name="Path 12571" d="M119.672,124.746a5.074,5.074,0,1,1,5.074-5.074,5.08,5.08,0,0,1-5.074,5.074m0-8.414a3.34,3.34,0,1,0,3.34,3.34,3.344,3.344,0,0,0-3.34-3.34" transform="translate(-102.015 -102.015)" fill="#fff"/>
    <path id="Path_12572" data-name="Path 12572" d="M200.488,102.763a1.211,1.211,0,1,0-1.211,1.211,1.211,1.211,0,0,0,1.211-1.211" transform="translate(-176.317 -90.401)" fill="#fff"/>
  </g>
</svg>
