<svg xmlns="http://www.w3.org/2000/svg" width="19.83" height="19.844" viewBox="0 0 19.83 19.844">
  <g id="linkdin" transform="translate(-226.273 -7.735)">
    <path id="Path_12564" data-name="Path 12564" d="M2080.5,80.373c0,2.808.012,5.616-.007,8.424A1.36,1.36,0,0,1,2079,90.279q-8.414.025-16.829,0a1.358,1.358,0,0,1-1.491-1.481q-.021-8.433,0-16.866a1.352,1.352,0,0,1,1.48-1.472q8.433-.026,16.866,0a1.347,1.347,0,0,1,1.462,1.47c.02,2.814.007,5.628.007,8.442" transform="translate(-1834.401 -62.711)" fill="#fff"/>
    <path id="Path_12565" data-name="Path 12565" d="M2140.367,145.669h-2.93c0-1.322,0-5.045-.047-5.583-.088-.92-.51-1.549-1.542-1.511-1.1.041-1.671.664-1.692,1.929-.029,1.714-.007,3.428-.007,5.157h-2.928v-9.417h2.8v1.3c1.634-1.726,3.8-2.059,5.229-.791a4.129,4.129,0,0,1,1.1,3.172c.033.794.02,4.617.02,5.75" transform="translate(-1897.201 -121.049)" fill="#353535"/>
    <rect id="Rectangle_1547" data-name="Rectangle 1547" width="2.913" height="9.419" transform="translate(229.227 15.193)" fill="#353535"/>
    <path id="Path_12566" data-name="Path 12566" d="M2088.78,97.139a1.7,1.7,0,1,1-1.694-1.7,1.706,1.706,0,0,1,1.694,1.7" transform="translate(-1856.394 -84.963)" fill="#353535"/>
  </g>
</svg>
