<svg xmlns="http://www.w3.org/2000/svg" width="38.187" height="71.355" viewBox="0 0 38.187 71.355">
  <g id="TOF_Olive" data-name="TOF Olive" transform="translate(19.093 35.678)">
    <g id="Group_4032" data-name="Group 4032" transform="translate(-19.093 -35.678)">
      <g id="Group_4030" data-name="Group 4030" transform="translate(0 61.769)">
        <path id="Path_12735" data-name="Path 12735" d="M.011,632.086v-6.923c0-.05,0-.143-.005-.28S0,624.64,0,624.561a.722.722,0,0,1,.125-.487.6.6,0,0,1,.446-.135c.038,0,.1,0,.172.006s.136.006.173.006.1,0,.176-.006.14-.006.182-.006H3.09c.076,0,.159,0,.251-.007l.157-.006a.607.607,0,0,1,.471.145.819.819,0,0,1,.126.527c0,.054,0,.15-.013.286s-.013.242-.013.317c0,.336-.051.548-.154.638a2.058,2.058,0,0,1-1.007.135H2.55c-.213,0-.347.042-.4.126a1.387,1.387,0,0,0-.078.6q0,.49.094.572a1.322,1.322,0,0,0,.629.082h.088c.1,0,.24-.009.406-.025s.279-.025.342-.025a.317.317,0,0,1,.285.125.822.822,0,0,1,.086.44c0,.054,0,.138-.006.251s-.007.2-.007.252v.32a.927.927,0,0,1-.131.588.635.635,0,0,1-.484.148c-.063,0-.179,0-.348-.013s-.308-.013-.412-.013a.53.53,0,0,0-.418.122.963.963,0,0,0-.1.531v1.865q0,.239.019.519c.013.186.02.292.02.317a.514.514,0,0,1-.116.377.543.543,0,0,1-.387.113c-.075,0-.2-.009-.374-.025s-.309-.026-.4-.026c-.063,0-.154.007-.274.02s-.208.019-.266.019a.3.3,0,0,1-.248-.085A.738.738,0,0,1,0,632.752v-.257c0-.046,0-.115.006-.207S.011,632.128.011,632.086Z" transform="translate(0 -623.775)" fill="#fff"/>
        <path id="Path_12736" data-name="Path 12736" d="M41.43,632.052l.4-1.872a4.109,4.109,0,0,0,.057-.487c.017-.224.035-.395.057-.511q.245-1.269.442-2.362t.293-1.684v-.006q.194-1.074.565-1.074h1.584a1.169,1.169,0,0,1,.339.034.328.328,0,0,1,.164.123,11.32,11.32,0,0,1,.408,1.658q.213,1.037.364,1.7.076.345.24,1.445t.3,1.834q.056.321.225,1.005a4.7,4.7,0,0,1,.17.974.437.437,0,0,1-.163.355.648.648,0,0,1-.428.135h-1.13a.381.381,0,0,1-.239-.088.416.416,0,0,1-.15-.213,2.835,2.835,0,0,1-.06-.456,3.031,3.031,0,0,0-.054-.424.582.582,0,0,0-.183-.342.6.6,0,0,0-.371-.1,1.135,1.135,0,0,0-.537.107.321.321,0,0,0-.2.289c0,.059,0,.137.005.236s.007.17.007.217a1.031,1.031,0,0,1-.128.615.59.59,0,0,1-.474.157H41.75a.6.6,0,0,1-.37-.088.333.333,0,0,1-.113-.283,3.346,3.346,0,0,1,.1-.628C41.395,632.2,41.416,632.111,41.43,632.052Zm2.675-5.7-.358,2.613-.062.434a.219.219,0,0,0,.135.2.782.782,0,0,0,.368.072.607.607,0,0,0,.351-.078.325.325,0,0,0,.107-.28c0-.029,0-.061,0-.1s-.01-.1-.022-.192l-.409-2.682Z" transform="translate(-37.171 -623.891)" fill="#fff"/>
        <path id="Path_12737" data-name="Path 12737" d="M101.524,628.546A6.306,6.306,0,0,1,102.23,625a3.035,3.035,0,0,1,2.573-.942.826.826,0,0,1,.571.148.744.744,0,0,1,.151.537c0,.029,0,.106-.007.23s-.006.231-.006.323c0,.038,0,.11.013.217s.013.194.013.261a.821.821,0,0,1-.056.339.467.467,0,0,1-.2.2.448.448,0,0,1-.11.028,1.69,1.69,0,0,1-.223.01,2.359,2.359,0,0,0-.276.012,1.137,1.137,0,0,0-.176.038.845.845,0,0,0-.559.55,6.424,6.424,0,0,0-.151,1.768,6.329,6.329,0,0,0,.191,1.994.689.689,0,0,0,.688.449c.075,0,.17,0,.285-.013s.193-.012.23-.012a.317.317,0,0,1,.274.135.676.676,0,0,1,.1.393q0,.465.025.911v.094a.648.648,0,0,1-.195.54,1.2,1.2,0,0,1-.7.151,3.923,3.923,0,0,1-1.53-.23,2.165,2.165,0,0,1-.9-.788,3.788,3.788,0,0,1-.552-1.414A12.854,12.854,0,0,1,101.524,628.546Z" transform="translate(-91.449 -623.891)" fill="#fff"/>
        <path id="Path_12738" data-name="Path 12738" d="M148.48,626.828l.012,5.214q0,.227.019.509c.013.188.019.3.019.339a.644.644,0,0,1-.107.414.447.447,0,0,1-.358.126l-.123-.006c-.069,0-.131-.007-.186-.007s-.184.007-.364.02-.328.019-.445.019a.666.666,0,0,1-.443-.119.506.506,0,0,1-.135-.4c0-.071,0-.183.013-.336s.013-.267.013-.343v-3.335c0-.067,0-.173-.013-.318s-.013-.256-.013-.336c0-.034,0-.115.006-.245.022-.506.031-.988.031-1.444a.5.5,0,0,0-.021-.179.107.107,0,0,0-.079-.06,2.355,2.355,0,0,0-.489-.044,1.517,1.517,0,0,1-.515-.075.371.371,0,0,1-.183-.292,6.552,6.552,0,0,1-.051-1.046.755.755,0,0,1,.148-.512.576.576,0,0,1,.455-.167q.855,0,1.7-.025l.17-.007c.138,0,.316.008.533.022s.366.023.447.023.2,0,.358-.013.268-.013.339-.013q.378,0,.477.113a.856.856,0,0,1,.1.515v.151a3.634,3.634,0,0,1-.1,1.1.354.354,0,0,1-.355.223h-.428a.632.632,0,0,0-.336.065.281.281,0,0,0-.1.249v.213Z" transform="translate(-130.671 -624.002)" fill="#fff"/>
        <path id="Path_12739" data-name="Path 12739" d="M199.009,627.282a16.551,16.551,0,0,1,.116-2.353,3.941,3.941,0,0,1,.386-1.222,2.189,2.189,0,0,1,1-.971,3.579,3.579,0,0,1,1.6-.329,2.449,2.449,0,0,1,2.083.864,4.6,4.6,0,0,1,.656,2.761v.414q0,1.967-.078,2.74a4.8,4.8,0,0,1-.267,1.25,2.3,2.3,0,0,1-1.017,1.152,3.432,3.432,0,0,1-1.728.405,2.278,2.278,0,0,1-2.123-1.042A7.635,7.635,0,0,1,199.009,627.282Zm2.293,1.25a2.589,2.589,0,0,0,.122.973.448.448,0,0,0,.444.258.541.541,0,0,0,.546-.321,5.583,5.583,0,0,0,.144-1.683v-2.174a1.388,1.388,0,0,0-.162-.728.54.54,0,0,0-.949.038,2.759,2.759,0,0,0-.144,1.073Z" transform="translate(-179.259 -622.407)" fill="#fff"/>
        <path id="Path_12740" data-name="Path 12740" d="M266.042,632.139v-7.645a1,1,0,0,1,.147-.657.766.766,0,0,1,.556-.153c.147,0,.331,0,.552.012s.373.013.453.013c.121,0,.34-.007.656-.019s.568-.019.758-.019a2.091,2.091,0,0,1,1.809.732,4.29,4.29,0,0,1,.535,2.46,6.469,6.469,0,0,1-.22,1.963,1.53,1.53,0,0,1-.742.908l1.169,2.676a1.306,1.306,0,0,1,.047.132.354.354,0,0,1,.015.1.32.32,0,0,1-.118.261.508.508,0,0,1-.327.1,1.187,1.187,0,0,1-.137-.012,1.222,1.222,0,0,0-.151-.013h-1.093c-.247,0-.427-.162-.54-.484l-.076-.2-.993-2.557h-.225v2.714a.632.632,0,0,1-.1.4.4.4,0,0,1-.324.126h-1.143a.472.472,0,0,1-.4-.138A1.454,1.454,0,0,1,266.042,632.139Zm2.041-4.9a1.84,1.84,0,0,0,.129.9.6.6,0,0,0,.493.164.638.638,0,0,0,.521-.238.96.96,0,0,0,.2-.629,4.018,4.018,0,0,0-.167-1.5.638.638,0,0,0-.619-.311.533.533,0,0,0-.434.172.794.794,0,0,0-.144.518q0,.069.013.374C268.078,626.9,268.083,627.08,268.083,627.239Z" transform="translate(-239.639 -623.546)" fill="#fff"/>
        <path id="Path_12741" data-name="Path 12741" d="M330.565,624.576l.458,2.94h.107l.408-2.607a2.628,2.628,0,0,1,.132-.575.317.317,0,0,1,.195-.2,2.172,2.172,0,0,1,.461-.06q.348-.022.927-.022a.986.986,0,0,1,.464.084.274.274,0,0,1,.151.255.868.868,0,0,1-.031.185q-.032.128-.081.3l-1.42,4.3a.762.762,0,0,1-.038.113,3.317,3.317,0,0,0-.207,1.193v.082l.033,1.772c0,.087,0,.194.013.317s.012.2.012.235a.405.405,0,0,1-.119.334.734.734,0,0,1-.434.094c-.092,0-.2,0-.327-.006l-.225-.007q-.228,0-.465.013l-.246.013a.363.363,0,0,1-.267-.082.4.4,0,0,1-.078-.277v-.15q.024-.861.024-1.8v-.986a2.532,2.532,0,0,0-.163-.767c-.008-.025-.014-.044-.019-.057l-1.464-4.322a2.4,2.4,0,0,1-.081-.28.948.948,0,0,1-.026-.2.315.315,0,0,1,.123-.28.707.707,0,0,1,.392-.084c.021,0,.092.005.214.015s.235.016.34.016c.033,0,.13,0,.289-.009s.3-.01.434-.01a.49.49,0,0,1,.348.11A.72.72,0,0,1,330.565,624.576Z" transform="translate(-295.683 -623.891)" fill="#fff"/>
      </g>
      <path id="Path_12742" data-name="Path 12742" d="M19.059,25.453a1.755,1.755,0,0,1-.127-.653,2.4,2.4,0,0,1,2.612-2.122,2.867,2.867,0,0,1,2.029.787,4.691,4.691,0,0,1,3.52-1.441,5.521,5.521,0,0,1,.76.055c.406-1.153,1.956-2.014,3.811-2.014a5.633,5.633,0,0,1,1.5.2,4.3,4.3,0,0,1,2.742-1.016,4.21,4.21,0,0,1,2.278.679V0H0V6.781c.057,0,.113,0,.17,0,3.687,0,6.813,1.741,7.911,4.152a5.651,5.651,0,0,1,1.659-.245,5.136,5.136,0,0,1,3.168,1.022,1.515,1.515,0,0,1,1.129-.5,1.468,1.468,0,0,1,1.484,1.307c.048,0,.095,0,.143,0,1.8,0,3.256.933,3.256,2.083a1.371,1.371,0,0,1-.028.26H0V41.309l9.988-4.777,5.629-2.83a6.109,6.109,0,0,1,3.476-.824,6.109,6.109,0,0,1,3.476.824l5.629,2.83,9.988,4.777V25.453Z" transform="translate(0)" fill="#fff"/>
      <g id="Group_4031" data-name="Group 4031" transform="translate(0 51.202)">
        <path id="Path_12743" data-name="Path 12743" d="M3.6,520.593l.013,5.5c0,.16.007.338.019.537s.02.318.02.358a.673.673,0,0,1-.113.438.47.47,0,0,1-.378.132l-.129-.007c-.072,0-.138-.007-.2-.007s-.195.007-.384.02-.347.02-.471.02a.7.7,0,0,1-.466-.126.533.533,0,0,1-.142-.417c0-.075,0-.194.013-.355s.013-.282.013-.361v-3.519q0-.105-.013-.335c-.009-.152-.013-.27-.013-.354,0-.036,0-.122.006-.259q.033-.8.034-1.524a.5.5,0,0,0-.024-.189.112.112,0,0,0-.082-.063,2.525,2.525,0,0,0-.518-.047,1.6,1.6,0,0,1-.543-.079.4.4,0,0,1-.191-.308,6.8,6.8,0,0,1-.053-1.1.794.794,0,0,1,.156-.54.608.608,0,0,1,.48-.176q.9,0,1.789-.026l.18-.007q.218,0,.564.023c.23.016.387.023.47.023s.214,0,.378-.014.283-.013.359-.013a.711.711,0,0,1,.5.119.908.908,0,0,1,.106.543v.159a3.879,3.879,0,0,1-.1,1.163.374.374,0,0,1-.374.235H4.056a.673.673,0,0,0-.355.069.3.3,0,0,0-.1.262v.225Z" transform="translate(0 -517.611)" fill="#fff"/>
        <path id="Path_12744" data-name="Path 12744" d="M58.395,517.667h.424a1.54,1.54,0,0,1,.809.139.618.618,0,0,1,.192.53v.093l-.079,2.148c0,.031,0,.077-.007.139s-.007.106-.007.132a.79.79,0,0,0,.123.507.512.512,0,0,0,.407.142.45.45,0,0,0,.422-.205,1.5,1.5,0,0,0,.122-.716,8.379,8.379,0,0,0-.053-.915c-.009-.1-.013-.159-.013-.185a3.313,3.313,0,0,1,.026-.362,3.4,3.4,0,0,0,.027-.361c0-.07,0-.164-.013-.282s-.013-.2-.013-.249a.523.523,0,0,1,.155-.437,1.426,1.426,0,0,1,.74-.119h.636a.787.787,0,0,1,.5.116.5.5,0,0,1,.136.4c0,.017,0,.066-.006.146q-.034.61-.034,1.212c0,.049,0,.225.007.53s.007.586.007.842q0,.279-.014,1.6t-.012,2.367q0,.583.019,1.183t.02.62a.912.912,0,0,1-.149.58.58.58,0,0,1-.474.182h-.961a.569.569,0,0,1-.474-.189.971.971,0,0,1-.149-.6V525.46a5.693,5.693,0,0,1,.06-.719,5.519,5.519,0,0,0,.06-.6.512.512,0,0,0-.1-.344.385.385,0,0,0-.306-.113.651.651,0,0,0-.511.169,1.09,1.09,0,0,0-.145.673v2.14a.865.865,0,0,1-.162.633,1.135,1.135,0,0,1-.692.142h-.531a1.14,1.14,0,0,1-.685-.125.679.679,0,0,1-.13-.484q0-.033.007-.179.027-.729.027-1.424,0-.73-.024-2.125t-.024-2.058q0-.3.017-1.043t.017-1.2v-.338q0-.543.148-.673A1.106,1.106,0,0,1,58.395,517.667Z" transform="translate(-51.841 -517.495)" fill="#fff"/>
        <path id="Path_12745" data-name="Path 12745" d="M119.376,518.674c0-.013,0-.057-.006-.132s-.007-.144-.007-.206a.662.662,0,0,1,.169-.53,1.565,1.565,0,0,1,.845-.139h2.12c.014,0,.047,0,.1.007s.1.006.126.006h.04a2.169,2.169,0,0,1,.219-.013.823.823,0,0,1,.57.149.785.785,0,0,1,.152.56q0,.338.014.709v.119a.762.762,0,0,1-.135.52.732.732,0,0,1-.528.143c-.049,0-.129,0-.239-.007s-.2-.007-.265-.007h-.622a.36.36,0,0,0-.312.12.756.756,0,0,0-.086.424v.179a1.011,1.011,0,0,0,.1.563.492.492,0,0,0,.381.113c.062,0,.2-.006.4-.02s.38-.02.516-.02a.769.769,0,0,1,.567.156,1.261,1.261,0,0,1,.143.752v.4a1.348,1.348,0,0,1-.136.689.46.46,0,0,1-.42.219c-.062,0-.214-.008-.454-.026s-.457-.027-.646-.027a.523.523,0,0,0-.325.073q-.086.073-.087.384l-.014.8a.669.669,0,0,0,.084.421.583.583,0,0,0,.381.083q.484,0,1.034-.013h.159a.549.549,0,0,1,.478.172,1.859,1.859,0,0,1,.118.855,2.425,2.425,0,0,1-.142,1.1.691.691,0,0,1-.574.189q-.231,0-.977-.026t-1.262-.026c-.088,0-.241.009-.458.026s-.387.026-.51.026a.651.651,0,0,1-.458-.152.54.54,0,0,1-.165-.418q0-.205.049-.739c.034-.356.054-.648.063-.878Z" transform="translate(-107.428 -517.495)" fill="#fff"/>
        <path id="Path_12746" data-name="Path 12746" d="M201.077,521.073a17.587,17.587,0,0,1,.121-2.482,4.18,4.18,0,0,1,.408-1.289,2.31,2.31,0,0,1,1.05-1.024,3.77,3.77,0,0,1,1.693-.348,2.583,2.583,0,0,1,2.2.911,4.848,4.848,0,0,1,.692,2.913v.437q0,2.075-.082,2.89a5.033,5.033,0,0,1-.282,1.319,2.426,2.426,0,0,1-1.073,1.216,3.622,3.622,0,0,1-1.822.428,2.4,2.4,0,0,1-2.24-1.1A8.051,8.051,0,0,1,201.077,521.073Zm2.419,1.319a2.733,2.733,0,0,0,.128,1.027.473.473,0,0,0,.468.273.572.572,0,0,0,.576-.339,5.905,5.905,0,0,0,.153-1.776v-2.294a1.469,1.469,0,0,0-.172-.769.57.57,0,0,0-1,.04,2.919,2.919,0,0,0-.152,1.133Z" transform="translate(-181.122 -515.93)" fill="#fff"/>
        <path id="Path_12747" data-name="Path 12747" d="M270.517,523.87v-5.235a1.727,1.727,0,0,1,.113-.8.447.447,0,0,1,.4-.169h1.114a.631.631,0,0,1,.461.129,1.008,1.008,0,0,1,.123.62v5.958a1.163,1.163,0,0,0,.175.709.652.652,0,0,0,.547.226.736.736,0,0,0,.548-.186.769.769,0,0,0,.182-.557v-6.123a.974.974,0,0,1,.139-.61.651.651,0,0,1,.516-.166h1.054a.423.423,0,0,1,.374.166.968.968,0,0,1,.116.543v5.919a3.571,3.571,0,0,1-.752,2.518,3.148,3.148,0,0,1-2.383.8,3.418,3.418,0,0,1-1.332-.235,2.067,2.067,0,0,1-.894-.706,2.357,2.357,0,0,1-.388-.941A10.322,10.322,0,0,1,270.517,523.87Z" transform="translate(-243.67 -517.495)" fill="#fff"/>
        <path id="Path_12748" data-name="Path 12748" d="M338.167,520.593l.013,5.5c0,.16.007.338.019.537s.02.318.02.358a.673.673,0,0,1-.113.438.471.471,0,0,1-.378.132l-.13-.007c-.072,0-.138-.007-.2-.007s-.2.007-.385.02-.347.02-.471.02a.7.7,0,0,1-.467-.126.533.533,0,0,1-.142-.417c0-.075,0-.194.012-.355s.014-.282.014-.361v-3.519q0-.105-.014-.335c-.009-.152-.012-.27-.012-.354,0-.036,0-.122.005-.259q.034-.8.034-1.524a.5.5,0,0,0-.024-.189.113.113,0,0,0-.082-.063,2.527,2.527,0,0,0-.517-.047,1.6,1.6,0,0,1-.543-.079.393.393,0,0,1-.192-.308,6.786,6.786,0,0,1-.053-1.1.8.8,0,0,1,.156-.54.609.609,0,0,1,.48-.176q.9,0,1.789-.026l.179-.007q.219,0,.564.023t.47.023c.089,0,.214,0,.378-.014s.283-.013.358-.013a.713.713,0,0,1,.5.119.915.915,0,0,1,.106.543v.159a3.877,3.877,0,0,1-.1,1.163.374.374,0,0,1-.374.235h-.451a.669.669,0,0,0-.355.069.3.3,0,0,0-.1.262v.225Z" transform="translate(-301.366 -517.611)" fill="#fff"/>
      </g>
    </g>
  </g>
</svg>
