<svg xmlns="http://www.w3.org/2000/svg" width="110.787" height="207.014" viewBox="0 0 110.787 207.014">
  <g id="TOF_Olive" data-name="TOF Olive" transform="translate(55.393 103.507)">
    <g id="Group_4152" data-name="Group 4152" transform="translate(-55.393 -103.507)">
      <g id="Group_4150" data-name="Group 4150" transform="translate(0 179.203)">
        <path id="Path_12990" data-name="Path 12990" d="M.033,647.6V627.517c0-.145-.005-.416-.015-.812S0,626,0,625.768a2.094,2.094,0,0,1,.362-1.413,1.731,1.731,0,0,1,1.3-.392c.109,0,.276.006.5.018s.394.017.5.017.28-.005.511-.017.407-.018.527-.018H8.964c.22,0,.463-.006.729-.02s.421-.018.454-.018a1.762,1.762,0,0,1,1.368.419,2.376,2.376,0,0,1,.366,1.53c0,.158-.012.435-.037.829s-.038.7-.038.921c0,.973-.149,1.589-.447,1.85s-1.271.392-2.923.392H7.4c-.619,0-1.007.121-1.16.365a4.026,4.026,0,0,0-.226,1.731q0,1.421.272,1.659a3.836,3.836,0,0,0,1.824.237h.254c.3,0,.7-.026,1.178-.073s.809-.073.991-.073a.919.919,0,0,1,.828.364,2.386,2.386,0,0,1,.248,1.276c0,.157-.006.4-.018.727s-.02.572-.02.731v.927a2.69,2.69,0,0,1-.381,1.7,1.841,1.841,0,0,1-1.4.428c-.182,0-.52-.012-1.011-.036s-.893-.037-1.2-.037a1.538,1.538,0,0,0-1.212.355,2.792,2.792,0,0,0-.282,1.54v5.412q0,.694.054,1.506c.038.539.057.846.057.918a1.492,1.492,0,0,1-.338,1.094,1.576,1.576,0,0,1-1.122.329c-.217,0-.58-.025-1.085-.073s-.9-.074-1.174-.074c-.183,0-.446.02-.794.057s-.6.054-.772.054a.873.873,0,0,1-.721-.246A2.14,2.14,0,0,1,0,649.531v-.746c0-.133.007-.334.018-.6S.033,647.721.033,647.6Z" transform="translate(0 -623.489)" fill="#332e25"/>
        <path id="Path_12991" data-name="Path 12991" d="M41.74,647.256l1.165-5.431a11.923,11.923,0,0,0,.165-1.414c.049-.649.1-1.145.164-1.484q.711-3.682,1.282-6.853t.85-4.885v-.018q.562-3.116,1.639-3.115H51.6a3.387,3.387,0,0,1,.983.1.952.952,0,0,1,.474.357,32.853,32.853,0,0,1,1.184,4.811q.618,3.008,1.056,4.939.22,1,.7,4.191t.873,5.322q.164.93.653,2.916a13.629,13.629,0,0,1,.494,2.825,1.268,1.268,0,0,1-.474,1.029,1.879,1.879,0,0,1-1.241.393H53.021a1.1,1.1,0,0,1-.692-.256,1.206,1.206,0,0,1-.436-.618,8.228,8.228,0,0,1-.173-1.322,8.792,8.792,0,0,0-.155-1.231,1.689,1.689,0,0,0-.53-.993,1.732,1.732,0,0,0-1.076-.282,3.293,3.293,0,0,0-1.556.31.933.933,0,0,0-.572.838c0,.171,0,.4.015.684s.019.494.019.629a2.99,2.99,0,0,1-.372,1.785,1.711,1.711,0,0,1-1.376.457H42.67a1.753,1.753,0,0,1-1.075-.256.966.966,0,0,1-.329-.82,9.708,9.708,0,0,1,.291-1.822C41.64,647.686,41.7,647.426,41.74,647.256ZM49.5,630.707l-1.038,7.58-.18,1.259a.635.635,0,0,0,.39.573,2.269,2.269,0,0,0,1.067.208,1.758,1.758,0,0,0,1.019-.226.942.942,0,0,0,.31-.811c0-.085,0-.178-.009-.282s-.028-.288-.062-.556l-1.187-7.782Z" transform="translate(-29.385 -623.581)" fill="#332e25"/>
        <path id="Path_12992" data-name="Path 12992" d="M101.524,637.085q0-7.563,2.048-10.3t7.465-2.734a2.4,2.4,0,0,1,1.658.428,2.16,2.16,0,0,1,.437,1.557c0,.085-.006.308-.019.667s-.018.671-.018.936c0,.111.013.32.037.63s.037.563.037.757a2.384,2.384,0,0,1-.164.984,1.354,1.354,0,0,1-.582.583,1.3,1.3,0,0,1-.32.081,4.92,4.92,0,0,1-.648.028,6.847,6.847,0,0,0-.8.035,3.3,3.3,0,0,0-.511.111,2.45,2.45,0,0,0-1.62,1.6,18.637,18.637,0,0,0-.438,5.13q0,4.482.555,5.785a2,2,0,0,0,2,1.3c.216,0,.492-.012.827-.036s.559-.035.667-.035a.92.92,0,0,1,.794.391,1.961,1.961,0,0,1,.281,1.14q0,1.347.072,2.643v.272a1.879,1.879,0,0,1-.565,1.568,3.483,3.483,0,0,1-2.039.438,11.378,11.378,0,0,1-4.439-.668,6.28,6.28,0,0,1-2.616-2.285,10.991,10.991,0,0,1-1.6-4.1A37.289,37.289,0,0,1,101.524,637.085Z" transform="translate(-72.293 -623.581)" fill="#332e25"/>
        <path id="Path_12993" data-name="Path 12993" d="M154.968,631.868,155,647q0,.657.056,1.477c.037.547.056.874.056.984a1.867,1.867,0,0,1-.311,1.2,1.3,1.3,0,0,1-1.039.366c-.037,0-.155-.007-.357-.018s-.38-.02-.538-.02c-.179,0-.533.02-1.057.057s-.95.054-1.292.054a1.934,1.934,0,0,1-1.286-.346,1.469,1.469,0,0,1-.391-1.149c0-.206.012-.532.038-.975s.037-.774.037-.994v-9.676c0-.193-.013-.5-.037-.922s-.038-.743-.038-.974c0-.1.008-.335.018-.711.063-1.469.09-2.867.09-4.19a1.459,1.459,0,0,0-.062-.519.31.31,0,0,0-.23-.173,6.828,6.828,0,0,0-1.419-.128,4.4,4.4,0,0,1-1.494-.219,1.077,1.077,0,0,1-.53-.847,19.008,19.008,0,0,1-.147-3.035,2.19,2.19,0,0,1,.429-1.485,1.671,1.671,0,0,1,1.319-.483q2.481,0,4.924-.073c.279-.012.443-.019.492-.019.4,0,.918.022,1.548.063s1.063.065,1.3.065.589-.012,1.038-.037.778-.036.983-.036q1.1,0,1.385.327a2.485,2.485,0,0,1,.291,1.495v.439a10.544,10.544,0,0,1-.282,3.2,1.028,1.028,0,0,1-1.029.647h-1.24a1.835,1.835,0,0,0-.974.19.816.816,0,0,0-.281.722v.617Z" transform="translate(-103.3 -623.668)" fill="#332e25"/>
        <path id="Path_12994" data-name="Path 12994" d="M199.009,636.55a48.01,48.01,0,0,1,.337-6.826,11.432,11.432,0,0,1,1.121-3.545,6.351,6.351,0,0,1,2.889-2.817,10.383,10.383,0,0,1,4.656-.956q4.138,0,6.042,2.506t1.9,8.01v1.2q0,5.708-.225,7.948a13.909,13.909,0,0,1-.776,3.627A6.678,6.678,0,0,1,212,649.042a9.958,9.958,0,0,1-5.013,1.176q-4.337,0-6.159-3.024T199.009,636.55Zm6.653,3.627a7.511,7.511,0,0,0,.353,2.823,1.3,1.3,0,0,0,1.287.749,1.571,1.571,0,0,0,1.583-.93,16.2,16.2,0,0,0,.419-4.884v-6.307a4.025,4.025,0,0,0-.471-2.113,1.566,1.566,0,0,0-2.753.11,8,8,0,0,0-.418,3.114Z" transform="translate(-141.71 -622.407)" fill="#332e25"/>
        <path id="Path_12995" data-name="Path 12995" d="M266.042,648.24V626.06a2.914,2.914,0,0,1,.427-1.906,2.224,2.224,0,0,1,1.612-.445c.425,0,.961.012,1.6.035s1.082.037,1.315.037c.35,0,.986-.02,1.9-.056s1.649-.054,2.2-.054q3.7,0,5.247,2.123t1.551,7.136a18.766,18.766,0,0,1-.639,5.694,4.44,4.44,0,0,1-2.152,2.633l3.391,7.765a3.784,3.784,0,0,1,.136.383,1.026,1.026,0,0,1,.043.291.928.928,0,0,1-.344.756,1.473,1.473,0,0,1-.95.282,3.42,3.42,0,0,1-.4-.036,3.572,3.572,0,0,0-.439-.036h-3.171c-.718,0-1.239-.469-1.568-1.4-.1-.255-.17-.449-.22-.584l-2.881-7.418h-.653v7.874a1.834,1.834,0,0,1-.3,1.166,1.147,1.147,0,0,1-.94.366H267.5a1.369,1.369,0,0,1-1.167-.4A4.22,4.22,0,0,1,266.042,648.24Zm5.92-14.216a5.337,5.337,0,0,0,.375,2.623,1.744,1.744,0,0,0,1.43.474,1.851,1.851,0,0,0,1.512-.692,2.784,2.784,0,0,0,.568-1.824,11.657,11.657,0,0,0-.484-4.346,1.852,1.852,0,0,0-1.795-.9,1.548,1.548,0,0,0-1.258.5,2.3,2.3,0,0,0-.418,1.5q0,.2.037,1.085C271.95,633.036,271.962,633.561,271.962,634.023Z" transform="translate(-189.443 -623.307)" fill="#332e25"/>
        <path id="Path_12996" data-name="Path 12996" d="M334.949,625.568l1.329,8.529h.311l1.184-7.564a7.624,7.624,0,0,1,.384-1.669.919.919,0,0,1,.565-.572,6.293,6.293,0,0,1,1.338-.174q1.01-.064,2.689-.064a2.862,2.862,0,0,1,1.347.245.8.8,0,0,1,.437.739,2.516,2.516,0,0,1-.09.537q-.092.372-.235.866l-4.12,12.484a2.223,2.223,0,0,1-.111.328,9.624,9.624,0,0,0-.6,3.463v.237l.094,5.14c0,.253.012.562.037.92s.033.588.033.683a1.176,1.176,0,0,1-.344.968,2.129,2.129,0,0,1-1.259.273c-.266,0-.583-.007-.948-.018s-.583-.02-.653-.02c-.442,0-.891.012-1.349.038l-.713.036a1.054,1.054,0,0,1-.776-.237,1.146,1.146,0,0,1-.225-.8V649.5q.069-2.5.071-5.213v-2.861a7.344,7.344,0,0,0-.472-2.224c-.024-.072-.041-.127-.055-.164L328.57,626.5a6.987,6.987,0,0,1-.235-.812,2.752,2.752,0,0,1-.074-.573.914.914,0,0,1,.356-.812,2.053,2.053,0,0,1,1.137-.245c.061,0,.266.016.62.045s.682.046.985.046c.1,0,.376-.009.837-.027s.88-.028,1.26-.028a1.42,1.42,0,0,1,1.01.32A2.089,2.089,0,0,1,334.949,625.568Z" transform="translate(-233.747 -623.581)" fill="#332e25"/>
      </g>
      <path id="Path_12997" data-name="Path 12997" d="M55.294,73.844a5.092,5.092,0,0,1-.369-1.894c0-3.4,3.392-6.156,7.578-6.156a8.317,8.317,0,0,1,5.887,2.284A13.608,13.608,0,0,1,78.6,63.9a16.018,16.018,0,0,1,2.205.16c1.179-3.346,5.674-5.842,11.056-5.842a16.342,16.342,0,0,1,4.358.579,12.46,12.46,0,0,1,7.956-2.947,12.214,12.214,0,0,1,6.609,1.971V0H0V19.674c.165,0,.329-.01.495-.01,10.7,0,19.766,5.05,22.952,12.046A16.4,16.4,0,0,1,28.26,31a14.9,14.9,0,0,1,9.192,2.965,4.4,4.4,0,0,1,3.276-1.453A4.258,4.258,0,0,1,45.033,36.3c.139,0,.275-.012.416-.012,5.217,0,9.445,2.706,9.445,6.043a3.977,3.977,0,0,1-.081.755H0v76.759l28.977-13.858,16.331-8.21a17.723,17.723,0,0,1,10.086-2.391,17.723,17.723,0,0,1,10.085,2.391l16.331,8.21,28.977,13.858v-46Z" transform="translate(0)" fill="#332e25"/>
      <g id="Group_4151" data-name="Group 4151" transform="translate(0 148.546)">
        <path id="Path_12998" data-name="Path 12998" d="M10.439,525.91l.039,15.959c0,.463.02.982.056,1.558s.059.922.059,1.038a1.951,1.951,0,0,1-.328,1.269,1.364,1.364,0,0,1-1.1.384c-.039,0-.163-.006-.375-.019s-.4-.02-.567-.02c-.193,0-.565.02-1.114.059s-1.008.057-1.368.057a2.02,2.02,0,0,1-1.353-.365,1.546,1.546,0,0,1-.413-1.211c0-.218.011-.562.037-1.029s.039-.818.039-1.048v-10.21q0-.306-.039-.971c-.026-.441-.037-.785-.037-1.027,0-.1,0-.353.017-.751q.1-2.325.1-4.422a1.441,1.441,0,0,0-.069-.548.326.326,0,0,0-.238-.183,7.316,7.316,0,0,0-1.5-.135,4.653,4.653,0,0,1-1.576-.23,1.146,1.146,0,0,1-.555-.895,19.727,19.727,0,0,1-.154-3.2A2.3,2.3,0,0,1,.452,518.4a1.763,1.763,0,0,1,1.393-.51q2.614,0,5.189-.076c.3-.013.468-.02.521-.02q.632,0,1.635.068c.666.046,1.122.068,1.363.068.259,0,.621-.013,1.1-.04s.821-.037,1.041-.037a2.061,2.061,0,0,1,1.46.346,2.635,2.635,0,0,1,.308,1.576v.463a11.253,11.253,0,0,1-.3,3.374,1.085,1.085,0,0,1-1.085.682H11.766a1.954,1.954,0,0,0-1.03.2.859.859,0,0,0-.3.76v.653Z" transform="translate(0 -517.259)" fill="#332e25"/>
        <path id="Path_12999" data-name="Path 12999" d="M60,517.667h1.23a4.469,4.469,0,0,1,2.348.4,1.792,1.792,0,0,1,.556,1.537v.268l-.229,6.231c0,.09-.006.223-.019.4s-.019.307-.019.384a2.291,2.291,0,0,0,.356,1.472,1.485,1.485,0,0,0,1.18.413,1.307,1.307,0,0,0,1.223-.6,4.363,4.363,0,0,0,.353-2.076,24.309,24.309,0,0,0-.153-2.653c-.026-.282-.037-.462-.037-.538a9.61,9.61,0,0,1,.076-1.049,9.861,9.861,0,0,0,.077-1.047c0-.2-.012-.477-.039-.817s-.039-.579-.039-.722a1.516,1.516,0,0,1,.451-1.269,4.138,4.138,0,0,1,2.146-.345H71.3a2.283,2.283,0,0,1,1.452.337,1.464,1.464,0,0,1,.395,1.162c0,.05-.007.192-.018.423q-.1,1.769-.1,3.517c0,.142.006.654.019,1.539s.021,1.7.021,2.442q0,.808-.04,4.632t-.036,6.866q0,1.691.055,3.432t.059,1.8a2.645,2.645,0,0,1-.432,1.682,1.683,1.683,0,0,1-1.376.528H68.515a1.65,1.65,0,0,1-1.376-.548,2.816,2.816,0,0,1-.432-1.74v-3.462a16.514,16.514,0,0,1,.173-2.087,16.014,16.014,0,0,0,.174-1.739,1.486,1.486,0,0,0-.288-1,1.118,1.118,0,0,0-.887-.327,1.888,1.888,0,0,0-1.482.489,3.163,3.163,0,0,0-.421,1.952v6.21a2.508,2.508,0,0,1-.471,1.836,3.292,3.292,0,0,1-2.008.413h-1.54a3.309,3.309,0,0,1-1.988-.364,1.969,1.969,0,0,1-.376-1.405q0-.1.019-.519.078-2.116.079-4.133,0-2.118-.069-6.164t-.069-5.97q0-.865.049-3.027t.05-3.472v-.98q0-1.576.431-1.952A3.209,3.209,0,0,1,60,517.667Z" transform="translate(-40.982 -517.167)" fill="#332e25"/>
        <path id="Path_13000" data-name="Path 13000" d="M119.59,520.588c0-.037-.007-.165-.018-.383s-.02-.417-.02-.6a1.922,1.922,0,0,1,.49-1.537,4.54,4.54,0,0,1,2.453-.4h6.15c.041,0,.136.006.289.019s.278.018.366.018h.115a6.287,6.287,0,0,1,.635-.037,2.388,2.388,0,0,1,1.655.432,2.279,2.279,0,0,1,.441,1.624q0,.982.04,2.058v.346a2.211,2.211,0,0,1-.392,1.509,2.123,2.123,0,0,1-1.531.414c-.141,0-.373-.007-.694-.02s-.575-.02-.769-.02h-1.8a1.044,1.044,0,0,0-.905.347,2.194,2.194,0,0,0-.25,1.23v.52a2.933,2.933,0,0,0,.279,1.633,1.426,1.426,0,0,0,1.1.327c.181,0,.572-.018,1.174-.057s1.1-.057,1.5-.057a2.232,2.232,0,0,1,1.645.451,3.657,3.657,0,0,1,.415,2.183v1.153a3.911,3.911,0,0,1-.4,2,1.333,1.333,0,0,1-1.22.634c-.179,0-.622-.024-1.318-.076s-1.325-.078-1.874-.078a1.517,1.517,0,0,0-.942.211q-.251.213-.252,1.115l-.04,2.327a1.942,1.942,0,0,0,.242,1.222,1.69,1.69,0,0,0,1.1.24q1.4,0,3-.039h.461a1.592,1.592,0,0,1,1.387.5,5.4,5.4,0,0,1,.343,2.48,7.037,7.037,0,0,1-.412,3.2,2.006,2.006,0,0,1-1.665.548q-.672,0-2.835-.077t-3.663-.077c-.255,0-.7.026-1.328.077s-1.122.077-1.478.077a1.889,1.889,0,0,1-1.328-.441,1.567,1.567,0,0,1-.48-1.212q0-.6.143-2.144c.1-1.032.157-1.881.183-2.546Z" transform="translate(-84.926 -517.167)" fill="#332e25"/>
        <path id="Path_13001" data-name="Path 13001" d="M201.077,530.851a51.018,51.018,0,0,1,.352-7.2,12.129,12.129,0,0,1,1.184-3.74,6.7,6.7,0,0,1,3.047-2.97,10.938,10.938,0,0,1,4.912-1.009q4.365,0,6.374,2.643t2.009,8.451v1.268q0,6.02-.239,8.384a14.6,14.6,0,0,1-.818,3.825,7.039,7.039,0,0,1-3.114,3.528,10.509,10.509,0,0,1-5.286,1.241q-4.579,0-6.5-3.192T201.077,530.851Zm7.018,3.825a7.927,7.927,0,0,0,.373,2.979,1.373,1.373,0,0,0,1.357.791,1.66,1.66,0,0,0,1.671-.982,17.133,17.133,0,0,0,.443-5.151v-6.654a4.261,4.261,0,0,0-.5-2.23,1.653,1.653,0,0,0-2.9.116,8.469,8.469,0,0,0-.441,3.287Z" transform="translate(-143.183 -515.93)" fill="#332e25"/>
        <path id="Path_13002" data-name="Path 13002" d="M270.517,535.663V520.475a5.01,5.01,0,0,1,.329-2.318,1.3,1.3,0,0,1,1.17-.49h3.231a1.831,1.831,0,0,1,1.338.375,2.925,2.925,0,0,1,.356,1.8v17.285a3.373,3.373,0,0,0,.507,2.058,1.892,1.892,0,0,0,1.586.654,2.136,2.136,0,0,0,1.59-.54,2.231,2.231,0,0,0,.527-1.615V519.917a2.825,2.825,0,0,1,.4-1.769,1.888,1.888,0,0,1,1.5-.481h3.057a1.227,1.227,0,0,1,1.086.481,2.808,2.808,0,0,1,.337,1.576V536.9q0,5-2.182,7.3t-6.914,2.308a9.916,9.916,0,0,1-3.865-.683,6,6,0,0,1-2.593-2.048,6.839,6.839,0,0,1-1.124-2.731A29.941,29.941,0,0,1,270.517,535.663Z" transform="translate(-192.63 -517.167)" fill="#332e25"/>
        <path id="Path_13003" data-name="Path 13003" d="M345.007,525.91l.039,15.959c0,.463.02.982.056,1.558s.059.922.059,1.038a1.953,1.953,0,0,1-.327,1.269,1.367,1.367,0,0,1-1.1.384c-.04,0-.164-.006-.376-.019s-.4-.02-.566-.02c-.193,0-.566.02-1.116.059s-1.007.057-1.366.057a2.022,2.022,0,0,1-1.354-.365,1.547,1.547,0,0,1-.411-1.211c0-.218.009-.562.035-1.029s.04-.818.04-1.048v-10.21q0-.306-.04-.971c-.026-.441-.035-.785-.035-1.027,0-.1,0-.353.016-.751q.1-2.325.1-4.422a1.452,1.452,0,0,0-.068-.548.328.328,0,0,0-.239-.183,7.322,7.322,0,0,0-1.5-.135,4.643,4.643,0,0,1-1.576-.23,1.142,1.142,0,0,1-.557-.895,19.694,19.694,0,0,1-.154-3.2,2.309,2.309,0,0,1,.451-1.566,1.765,1.765,0,0,1,1.393-.51q2.613,0,5.189-.076c.3-.013.468-.02.52-.02q.635,0,1.636.068t1.363.068c.258,0,.622-.013,1.1-.04s.821-.037,1.039-.037a2.069,2.069,0,0,1,1.463.346,2.653,2.653,0,0,1,.307,1.576v.463a11.25,11.25,0,0,1-.3,3.374,1.086,1.086,0,0,1-1.085.682h-1.308a1.942,1.942,0,0,0-1.03.2.857.857,0,0,0-.3.76v.653Z" transform="translate(-238.24 -517.259)" fill="#332e25"/>
      </g>
    </g>
  </g>
</svg>
