<svg xmlns="http://www.w3.org/2000/svg" width="21.721" height="15.11" viewBox="0 0 21.721 15.11">
  <g id="yotube" transform="translate(-170.695 -10.103)">
    <path id="Path_12574" data-name="Path 12574" d="M1554.521,99.558a39.633,39.633,0,0,0,.242,4.366,3.063,3.063,0,0,0,2.866,2.927,116.045,116.045,0,0,0,15.505,0,3.064,3.064,0,0,0,2.866-2.927,39.6,39.6,0,0,0,0-8.732,3.064,3.064,0,0,0-2.866-2.927,116.045,116.045,0,0,0-15.505,0,3.063,3.063,0,0,0-2.866,2.927,39.633,39.633,0,0,0-.242,4.366" transform="translate(-1383.827 -81.901)" fill="#fff"/>
    <path id="Path_12575" data-name="Path 12575" d="M1633.724,131.128l5.689,3.259-5.689,3.259Z" transform="translate(-1454.333 -116.729)" fill="#353535"/>
  </g>
</svg>
